#!OML:ASF Y:\EmotionMaleHayes\Project 1\Capture day 1\Session 1\Male1.ASF
:FULLY-SPECIFIED
:DEGREES
668
root 0.779214 16.8962 16.2404 -181.681 67.1187 -180.043
lowerback 4.05848 2.64836 -4.74328
upperback -0.00534672 3.3147 -2.84894
thorax -2.37807 1.72257 -0.485032
lowerneck -20.6374 -0.577955 2.0351
upperneck 25.5928 -0.190923 -3.21382
head 11.8055 -0.168576 -1.54355
rclavicle 6.55989e-014 6.36111e-015
rhumerus -37.1824 11.908 -89.2124
rradius 43.1645
rwrist -1.20905
rhand -6.94344 -30.5065
rfingers 7.12502
rthumb 18.9252 -59.6059
lclavicle 6.55989e-014 6.36111e-015
lhumerus -42.9478 -3.11207 84.8499
lradius 33.7275
lwrist -2.72151
lhand -13.5676 -22.2762
lfingers 7.12502
lthumb 12.546 7.32715
rfemur 10.2347 -7.42761 9.9185
rtibia 45.9684
rfoot 11.1798 -2.52675
rtoes 16.1817
lfemur -1.67568 18.4411 -29.0249
ltibia 2.77458
lfoot -9.94127 13.7392
ltoes 20.7267
669
root 0.889205 16.9005 16.1829 -184.859 65.9528 -183.35
lowerback 4.03215 2.40807 -6.35387
upperback 0.148162 2.95022 -3.1488
thorax -2.25901 1.56385 0.126005
lowerneck -20.6032 -0.666197 1.86339
upperneck 25.5493 -0.278373 -3.14744
head 11.7799 -0.216257 -1.50272
rclavicle -9.16646e-014 -2.70347e-014
rhumerus -37.7241 12.0673 -89.4975
rradius 43.0181
rwrist -1.38212
rhand -5.3988 -31.4097
rfingers 7.12502
rthumb 20.4102 -60.357
lclavicle -9.16646e-014 -2.70347e-014
lhumerus -42.5905 -3.85159 85.2983
lradius 34.518
lwrist -2.0961
lhand -13.6503 -22.6122
lfingers 7.12502
lthumb 12.4663 6.99595
rfemur 9.72243 -7.54601 8.0828
rtibia 47.2373
rfoot 12.5965 -2.23659
rtoes 18.3004
lfemur -0.933137 18.7833 -30.5294
ltibia 2.78224
lfoot -10.3822 12.4848
ltoes 23.4505
670
root 0.986899 16.902 16.1164 -187.082 65.1348 -185.666
lowerback 3.95546 2.25188 -7.55545
upperback 0.331668 2.72533 -3.31173
thorax -2.06096 1.46311 0.643719
lowerneck -20.6867 -0.754903 1.5138
upperneck 25.5206 -0.34333 -2.96645
head 11.7854 -0.258118 -1.38703
rclavicle 1.51076e-014 6.36111e-014
rhumerus -38.1408 12.3866 -89.6446
rradius 42.8964
rwrist -1.47147
rhand -6.5972 -30.684
rfingers 7.12502
rthumb 19.2582 -59.7504
lclavicle 1.51076e-014 6.36111e-014
lhumerus -42.098 -4.4009 85.7886
lradius 35.2841
lwrist -1.70006
lhand -13.6702 -22.3668
lfingers 7.12502
lthumb 12.4471 7.24259
rfemur 8.86258 -7.4049 6.59012
rtibia 48.7218
rfoot 12.2679 -1.42431
rtoes 15.6541
lfemur -0.150501 18.7745 -31.733
ltibia 2.47588
lfoot -10.2653 11.8046
ltoes 21.9887
671
root 1.0877 16.9027 16.05 -189.297 64.2165 -187.943
lowerback 3.91079 2.12295 -8.76226
upperback 0.496275 2.54151 -3.5435
thorax -1.89126 1.38291 1.08562
lowerneck -20.4271 -0.777137 1.09685
upperneck 25.262 -0.376733 -2.50447
head 11.6371 -0.254025 -1.14478
rclavicle 2.5842e-014 3.18055e-015
rhumerus -38.4912 12.4018 -89.7808
rradius 42.5148
rwrist -1.23276
rhand -4.86068 -31.5076
rfingers 7.12502
rthumb 20.9273 -60.3988
lclavicle 2.5842e-014 3.18055e-015
lhumerus -41.485 -5.0282 86.2267
lradius 35.74
lwrist -1.49821
lhand -13.6565 -22.4304
lfingers 7.12502
lthumb 12.4603 7.17818
rfemur 8.27654 -7.2047 5.08365
rtibia 49.8803
rfoot 12.0253 -0.506347
rtoes 15.2554
lfemur 0.809894 18.7524 -32.9623
ltibia 1.99698
lfoot -9.83477 11.0508
ltoes 18.7145
672
root 1.1658 16.9119 15.9974 -189.176 63.2722 -187.941
lowerback 4.02958 1.91558 -8.92679
upperback 0.445399 2.24419 -3.59265
thorax -1.98981 1.24284 1.13853
lowerneck -19.8055 -0.718698 0.652898
upperneck 24.7912 -0.35176 -1.82584
head 11.3399 -0.196529 -0.806877
rclavicle 3.89369e-014 2.8625e-014
rhumerus -38.9274 12.2225 -90.0283
rradius 42.0442
rwrist -0.994687
rhand -4.30526 -31.6241
rfingers 7.12502
rthumb 21.4608 -60.4554
lclavicle 3.89369e-014 2.8625e-014
lhumerus -40.9748 -5.70554 86.5375
lradius 36.1494
lwrist -1.28348
lhand -13.7636 -23.0686
lfingers 7.12502
lthumb 12.3571 6.54624
rfemur 7.19273 -7.04124 5.00081
rtibia 51.1719
rfoot 10.3295 0.573253
rtoes 11.5898
lfemur 1.3099 18.1854 -33.1885
ltibia 1.71385
lfoot -9.85742 10.6843
ltoes 18.5232
673
root 1.26069 16.911 15.9436 -189.721 62.225 -188.389
lowerback 4.17819 1.64924 -9.49002
upperback 0.558905 1.86428 -3.57426
thorax -1.93923 1.05743 1.48948
lowerneck -19.8341 -0.75553 0.326593
upperneck 24.8994 -0.344223 -1.63189
head 11.3885 -0.197205 -0.680086
rclavicle 1.60767e-014 0
rhumerus -39.4306 12.2487 -90.1914
rradius 41.734
rwrist -0.760346
rhand -5.59112 -30.837
rfingers 7.12502
rthumb 20.2254 -59.8041
lclavicle 1.60767e-014 0
lhumerus -40.5433 -6.1667 86.8572
lradius 36.7998
lwrist -1.12568
lhand -13.7506 -23.1339
lfingers 7.12502
lthumb 12.3696 6.48015
rfemur 6.50908 -6.8557 4.59516
rtibia 52.3
rfoot 8.9333 1.56843
rtoes 8.83372
lfemur 2.15458 17.8574 -33.4652
ltibia 1.50807
lfoot -10.0669 10.0737
ltoes 18.2477
674
root 1.34353 16.9126 15.8937 -188.728 61.5383 -187.285
lowerback 4.29784 1.55094 -9.10334
upperback 0.580242 1.73146 -3.46473
thorax -1.96444 0.985845 1.39664
lowerneck -20.7108 -1.05348 0.628651
upperneck 25.8139 -0.602122 -2.41412
head 11.9043 -0.381408 -1.07529
rclavicle -2.09469e-014 1.43125e-014
rhumerus -40.0068 11.8383 -90.2587
rradius 41.5209
rwrist -0.528992
rhand -6.32964 -30.3281
rfingers 7.12502
rthumb 19.5154 -59.3687
lclavicle -2.09469e-014 1.43125e-014
lhumerus -40.0001 -7.07995 87.1922
lradius 37.4087
lwrist -0.900567
lhand -13.5485 -22.7073
lfingers 7.12502
lthumb 12.5644 6.89491
rfemur 5.33372 -6.36125 5.31286
rtibia 53.527
rfoot 7.68077 1.9163
rtoes 8.68277
lfemur 2.65436 17.1152 -32.9419
ltibia 1.46112
lfoot -10.3247 9.9399
ltoes 17.2701
675
root 1.43101 16.9117 15.822 -189.763 60.5269 -188.39
lowerback 4.3684 1.45227 -9.53187
upperback 0.643689 1.59667 -3.78011
thorax -1.92578 0.928979 1.31303
lowerneck -20.4271 -1.22277 0.411379
upperneck 25.549 -0.871349 -2.10774
head 11.7434 -0.484296 -0.962045
rclavicle 2.20651e-014 3.81667e-014
rhumerus -40.5554 11.23 -90.3879
rradius 41.1995
rwrist -0.38009
rhand -6.93164 -29.819
rfingers 7.12502
rthumb 18.9366 -58.9172
lclavicle 2.20651e-014 3.81667e-014
lhumerus -39.3871 -8.16523 87.4506
lradius 37.7746
lwrist -0.7221
lhand -13.4787 -22.6841
lfingers 7.12502
lthumb 12.6317 6.91393
rfemur 4.47562 -6.18763 4.36332
rtibia 54.538
rfoot 6.58198 2.45573
rtoes 9.06844
lfemur 3.38013 16.9443 -33.7809
ltibia 1.31056
lfoot -10.381 9.07935
ltoes 16.5321
676
root 1.50642 16.9176 15.7723 -188.99 59.7317 -187.522
lowerback 4.5443 1.3088 -9.20586
upperback 0.637192 1.39508 -3.75263
thorax -2.00629 0.828169 1.17163
lowerneck -20.5528 -1.38832 0.414475
upperneck 25.8493 -1.06897 -2.18111
head 11.8806 -0.577556 -1.02529
rclavicle -3.77691e-015 2.06736e-014
rhumerus -40.9732 11.0263 -90.5974
rradius 40.744
rwrist -0.360135
rhand -7.56598 -29.3626
rfingers 7.12502
rthumb 18.3264 -58.5193
lclavicle -3.77691e-015 2.06736e-014
lhumerus -38.7552 -8.90045 87.5786
lradius 38.0377
lwrist -0.759542
lhand -13.5177 -22.8543
lfingers 7.12502
lthumb 12.5941 6.74607
rfemur 3.32455 -5.67812 4.98702
rtibia 55.5462
rfoot 5.26403 2.11548
rtoes 9.64829
lfemur 3.94368 16.4405 -33.3317
ltibia 1.17976
lfoot -10.4905 8.68492
ltoes 15.5683
677
root 1.59366 16.9217 15.718 -189.263 58.6087 -187.768
lowerback 4.67352 1.03825 -9.59641
upperback 0.71465 1.01546 -3.78544
thorax -1.96909 0.643402 1.37633
lowerneck -19.8191 -1.31419 -0.30563
upperneck 25.162 -1.01969 -1.24977
head 11.4843 -0.507217 -0.53817
rclavicle 1.38404e-014 6.04305e-014
rhumerus -41.3537 10.9716 -90.6947
rradius 40.2574
rwrist -0.193247
rhand -7.04628 -29.6653
rfingers 7.12502
rthumb 18.8263 -58.7742
lclavicle 1.38404e-014 6.04305e-014
lhumerus -38.0538 -9.30754 87.6685
lradius 38.3107
lwrist -0.825687
lhand -13.4507 -22.8111
lfingers 7.12502
lthumb 12.6588 6.78533
rfemur 2.53332 -5.42933 4.74292
rtibia 56.3166
rfoot 4.13776 1.5312
rtoes 10.7024
lfemur 4.67353 16.161 -33.511
ltibia 1.03849
lfoot -10.5546 7.9703
ltoes 13.9413
678
root 1.66775 16.9257 15.657 -189.523 57.8684 -188.161
lowerback 4.70339 0.882378 -9.89401
upperback 0.739375 0.798859 -3.82853
thorax -1.94175 0.539582 1.5093
lowerneck -19.9948 -1.48189 -0.511249
upperneck 25.3053 -1.15314 -1.35499
head 11.5741 -0.600802 -0.565614
rclavicle -6.62698e-014 -7.31528e-014
rhumerus -41.841 10.7159 -90.7099
rradius 39.8781
rwrist 0.0934508
rhand -6.49917 -30.1999
rfingers 7.12502
rthumb 19.3524 -59.2569
lclavicle -6.62698e-014 -7.31528e-014
lhumerus -37.3157 -9.78104 87.8644
lradius 38.6337
lwrist -0.785471
lhand -13.4624 -22.6787
lfingers 7.12502
lthumb 12.6474 6.91843
rfemur 1.26307 -4.92566 4.41178
rtibia 57.2814
rfoot 3.23002 0.957966
rtoes 11.497
lfemur 5.13949 15.7271 -33.9338
ltibia 0.848816
lfoot -10.7585 7.71678
ltoes 12.7904
679
root 1.74317 16.9328 15.5957 -189.34 57.0931 -187.988
lowerback 4.67318 0.765851 -9.84979
upperback 0.824257 0.661705 -3.85721
thorax -1.82124 0.466075 1.46597
lowerneck -20.2271 -1.73919 -0.518286
upperneck 25.5703 -1.44446 -1.56048
head 11.7181 -0.75764 -0.690598
rclavicle 4.29375e-014 2.70347e-014
rhumerus -42.3924 10.0152 -90.6627
rradius 39.6927
rwrist 0.300559
rhand -6.29575 -30.5975
rfingers 7.12502
rthumb 19.548 -59.6348
lclavicle 4.29375e-014 2.70347e-014
lhumerus -36.6507 -10.6337 88.0862
lradius 39.0945
lwrist -0.696752
lhand -13.4899 -22.5801
lfingers 7.12502
lthumb 12.6209 7.01862
rfemur 0.21555 -4.38398 4.47027
rtibia 57.9078
rfoot 2.39901 0.25775
rtoes 11.0589
lfemur 5.68739 15.6052 -33.8907
ltibia 0.698535
lfoot -10.826 7.14053
ltoes 11.3412
680
root 1.81997 16.9422 15.5395 -189.117 56.1271 -187.756
lowerback 4.75854 0.603435 -9.78889
upperback 0.867186 0.44555 -3.90584
thorax -1.80202 0.358715 1.39552
lowerneck -19.0954 -1.64816 -1.19842
upperneck 24.552 -1.44488 -0.48043
head 11.1257 -0.688599 -0.1629
rclavicle -3.78188e-014 4.92986e-014
rhumerus -42.9784 9.07902 -90.4806
rradius 39.6423
rwrist 0.491987
rhand -5.99102 -31.019
rfingers 7.12502
rthumb 19.841 -60.0263
lclavicle -3.78188e-014 4.92986e-014
lhumerus -36.1318 -11.5593 88.2584
lradius 39.6428
lwrist -0.57834
lhand -13.4281 -22.3129
lfingers 7.12502
lthumb 12.6805 7.28213
rfemur -0.706322 -3.89567 4.60255
rtibia 58.3345
rfoot 1.19843 -0.506435
rtoes 8.37292
lfemur 6.26638 15.6698 -33.7177
ltibia 0.59028
lfoot -10.6503 6.18411
ltoes 10.0937
